# xmcd
#
# Track frame offsets: 
#        150
#        22573
#        46013
#        67670
#        87018
#        113657
#        133875
#        151378
#        170530
#        189455
#        208449
#        221435
#        239918
#        261960
#
# Disc length: 3783 seconds
#
# Revision: 0
# Processed by: cddbd v1.5.2PL0 Copyright (c) Steve Scherf et al.
# Submitted via: ExactAudioCopy v0.99pb5
#
DISCID=bd0ec50e
DTITLE=Stevie Nimmo - The Wynds Of Life
DYEAR=2010
DGENRE=Blues
TTITLE0=You'd Be On It
TTITLE1=Lonely Night In Georgia
TTITLE2=Morning Sun Midnight Rain
TTITLE3=Dreams
TTITLE4=Eye Of The Storm
TTITLE5=Good Day For The Blues
TTITLE6=Make It Up To You
TTITLE7=Long Road To Heaven
TTITLE8=Coming Home To You
TTITLE9=In Your Arms Tonight
TTITLE10=Winter
TTITLE11=Sometimes
TTITLE12=It's A Hard Life
TTITLE13=Everything Is Going To Be Alright
EXTD=
EXTT0=
EXTT1=
EXTT2=
EXTT3=
EXTT4=
EXTT5=
EXTT6=
EXTT7=
EXTT8=
EXTT9=
EXTT10=
EXTT11=
EXTT12=
EXTT13=
PLAYORDER=
